<svg width="112" height="96" viewBox="0 0 112 96" fill="none" xmlns="http://www.w3.org/2000/svg">
<path fill-rule="evenodd" clip-rule="evenodd" d="M18.5 5.16195C14.1 7.99595 8.51001 11.5929 6.07901 13.1569C3.64701 14.7209 1.28401 15.9999 0.82901 15.9999C0.37301 15.9999 0.01801 16.7879 0.04101 17.7499C0.06501 18.8079 2.73301 21.1379 6.79101 23.6449C10.481 25.9249 16.379 29.5979 19.897 31.8069L26.294 35.8239L18.897 40.5389C14.829 43.1319 8.92201 46.8839 5.77101 48.8759C2.62001 50.8689 0.03201 53.0099 0.02101 53.6329C-0.00099003 54.8209 26.145 71.9999 27.975 71.9999C28.555 71.9999 34.107 68.6899 40.312 64.6439C46.518 60.5969 52.618 56.7399 53.867 56.0709C55.921 54.9719 57.422 55.6769 69.529 63.4279C76.894 68.1419 83.391 71.9999 83.967 71.9999C84.796 71.9999 100.125 62.4199 110.704 55.2899C112.385 54.1569 112.329 53.9329 109.823 51.7899C108.35 50.5299 105.2 48.3319 102.823 46.9039C93.273 41.1689 86.041 36.4729 86.031 35.9999C86.025 35.7249 89.219 33.4749 93.13 30.9999C97.04 28.5249 102.533 25.0369 105.336 23.2499C108.139 21.4619 110.785 19.9999 111.216 19.9999C111.647 19.9999 112 19.3979 112 18.6619C112 17.1609 87.619 0.884946 84.5 0.303946C82.777 -0.0180538 74.922 4.45195 64 11.9689C62.625 12.9159 60.106 14.4109 58.402 15.2919L55.303 16.8949L42.402 8.46595C35.306 3.83095 28.825 0.0319465 28 0.0239465C27.175 0.0159465 22.9 2.32895 18.5 5.16195ZM69.363 27.6459C76.038 31.8509 81.66 35.4229 81.856 35.5839C82.051 35.7459 78.901 37.9839 74.856 40.5579C70.81 43.1329 64.852 46.9539 61.615 49.0499C55.795 52.8189 55.702 52.8409 53.115 51.0869C50.304 49.1799 46.115 46.5179 36.271 40.3819C32.845 38.2469 30.032 36.1779 30.021 35.7849C30.009 35.3919 31.012 34.5399 32.25 33.8929C34.366 32.7849 37.612 30.7569 49.421 23.1639C52.128 21.4239 54.992 19.9999 55.784 19.9999C56.577 19.9999 62.688 23.4399 69.363 27.6459ZM51.259 61.8289C26.649 77.3309 26.795 77.2249 28.157 78.4899C30.227 80.4139 55.011 95.9999 56 95.9999C56.986 95.9999 81.769 80.4169 83.835 78.4979C84.921 77.4899 82.448 75.5529 70.598 68.1289C62.584 63.1079 55.908 59.0349 55.763 59.0789C55.618 59.1219 53.592 60.3589 51.259 61.8289Z" fill="white"/>
<path fill-rule="evenodd" clip-rule="evenodd" d="M18.5 5.16195C14.1 7.99595 8.51001 11.5929 6.07901 13.1569C3.64701 14.7209 1.28401 15.9999 0.82901 15.9999C0.37301 15.9999 0.01801 16.7879 0.04101 17.7499C0.06501 18.8079 2.73301 21.1379 6.79101 23.6449C10.481 25.9249 16.379 29.5979 19.897 31.8069L26.294 35.8239L18.897 40.5389C14.829 43.1319 8.92201 46.8839 5.77101 48.8759C2.62001 50.8689 0.03201 53.0099 0.02101 53.6329C-0.00099003 54.8209 26.145 71.9999 27.975 71.9999C28.555 71.9999 34.107 68.6899 40.312 64.6439C46.518 60.5969 52.618 56.7399 53.867 56.0709C55.921 54.9719 57.422 55.6769 69.529 63.4279C76.894 68.1419 83.391 71.9999 83.967 71.9999C84.796 71.9999 100.125 62.4199 110.704 55.2899C112.385 54.1569 112.329 53.9329 109.823 51.7899C108.35 50.5299 105.2 48.3319 102.823 46.9039C93.273 41.1689 86.041 36.4729 86.031 35.9999C86.025 35.7249 89.219 33.4749 93.13 30.9999C97.04 28.5249 102.533 25.0369 105.336 23.2499C108.139 21.4619 110.785 19.9999 111.216 19.9999C111.647 19.9999 112 19.3979 112 18.6619C112 17.1609 87.619 0.884946 84.5 0.303946C82.777 -0.0180538 74.922 4.45195 64 11.9689C62.625 12.9159 60.106 14.4109 58.402 15.2919L55.303 16.8949L42.402 8.46595C35.306 3.83095 28.825 0.0319465 28 0.0239465C27.175 0.0159465 22.9 2.32895 18.5 5.16195ZM69.363 27.6459C76.038 31.8509 81.66 35.4229 81.856 35.5839C82.051 35.7459 78.901 37.9839 74.856 40.5579C70.81 43.1329 64.852 46.9539 61.615 49.0499C55.795 52.8189 55.702 52.8409 53.115 51.0869C50.304 49.1799 46.115 46.5179 36.271 40.3819C32.845 38.2469 30.032 36.1779 30.021 35.7849C30.009 35.3919 31.012 34.5399 32.25 33.8929C34.366 32.7849 37.612 30.7569 49.421 23.1639C52.128 21.4239 54.992 19.9999 55.784 19.9999C56.577 19.9999 62.688 23.4399 69.363 27.6459ZM51.259 61.8289C26.649 77.3309 26.795 77.2249 28.157 78.4899C30.227 80.4139 55.011 95.9999 56 95.9999C56.986 95.9999 81.769 80.4169 83.835 78.4979C84.921 77.4899 82.448 75.5529 70.598 68.1289C62.584 63.1079 55.908 59.0349 55.763 59.0789C55.618 59.1219 53.592 60.3589 51.259 61.8289Z" fill="white"/>
<path fill-rule="evenodd" clip-rule="evenodd" d="M18.5 5.16195C14.1 7.99595 8.51001 11.5929 6.07901 13.1569C3.64701 14.7209 1.28401 15.9999 0.82901 15.9999C0.37301 15.9999 0.01801 16.7879 0.04101 17.7499C0.06501 18.8079 2.73301 21.1379 6.79101 23.6449C10.481 25.9249 16.379 29.5979 19.897 31.8069L26.294 35.8239L18.897 40.5389C14.829 43.1319 8.92201 46.8839 5.77101 48.8759C2.62001 50.8689 0.03201 53.0099 0.02101 53.6329C-0.00099003 54.8209 26.145 71.9999 27.975 71.9999C28.555 71.9999 34.107 68.6899 40.312 64.6439C46.518 60.5969 52.618 56.7399 53.867 56.0709C55.921 54.9719 57.422 55.6769 69.529 63.4279C76.894 68.1419 83.391 71.9999 83.967 71.9999C84.796 71.9999 100.125 62.4199 110.704 55.2899C112.385 54.1569 112.329 53.9329 109.823 51.7899C108.35 50.5299 105.2 48.3319 102.823 46.9039C93.273 41.1689 86.041 36.4729 86.031 35.9999C86.025 35.7249 89.219 33.4749 93.13 30.9999C97.04 28.5249 102.533 25.0369 105.336 23.2499C108.139 21.4619 110.785 19.9999 111.216 19.9999C111.647 19.9999 112 19.3979 112 18.6619C112 17.1609 87.619 0.884946 84.5 0.303946C82.777 -0.0180538 74.922 4.45195 64 11.9689C62.625 12.9159 60.106 14.4109 58.402 15.2919L55.303 16.8949L42.402 8.46595C35.306 3.83095 28.825 0.0319465 28 0.0239465C27.175 0.0159465 22.9 2.32895 18.5 5.16195ZM69.363 27.6459C76.038 31.8509 81.66 35.4229 81.856 35.5839C82.051 35.7459 78.901 37.9839 74.856 40.5579C70.81 43.1329 64.852 46.9539 61.615 49.0499C55.795 52.8189 55.702 52.8409 53.115 51.0869C50.304 49.1799 46.115 46.5179 36.271 40.3819C32.845 38.2469 30.032 36.1779 30.021 35.7849C30.009 35.3919 31.012 34.5399 32.25 33.8929C34.366 32.7849 37.612 30.7569 49.421 23.1639C52.128 21.4239 54.992 19.9999 55.784 19.9999C56.577 19.9999 62.688 23.4399 69.363 27.6459ZM51.259 61.8289C26.649 77.3309 26.795 77.2249 28.157 78.4899C30.227 80.4139 55.011 95.9999 56 95.9999C56.986 95.9999 81.769 80.4169 83.835 78.4979C84.921 77.4899 82.448 75.5529 70.598 68.1289C62.584 63.1079 55.908 59.0349 55.763 59.0789C55.618 59.1219 53.592 60.3589 51.259 61.8289Z" fill="white"/>
<path fill-rule="evenodd" clip-rule="evenodd" d="M18.5 5.16195C14.1 7.99595 8.51001 11.5929 6.07901 13.1569C3.64701 14.7209 1.28401 15.9999 0.82901 15.9999C0.37301 15.9999 0.01801 16.7879 0.04101 17.7499C0.06501 18.8079 2.73301 21.1379 6.79101 23.6449C10.481 25.9249 16.379 29.5979 19.897 31.8069L26.294 35.8239L18.897 40.5389C14.829 43.1319 8.92201 46.8839 5.77101 48.8759C2.62001 50.8689 0.03201 53.0099 0.02101 53.6329C-0.00099003 54.8209 26.145 71.9999 27.975 71.9999C28.555 71.9999 34.107 68.6899 40.312 64.6439C46.518 60.5969 52.618 56.7399 53.867 56.0709C55.921 54.9719 57.422 55.6769 69.529 63.4279C76.894 68.1419 83.391 71.9999 83.967 71.9999C84.796 71.9999 100.125 62.4199 110.704 55.2899C112.385 54.1569 112.329 53.9329 109.823 51.7899C108.35 50.5299 105.2 48.3319 102.823 46.9039C93.273 41.1689 86.041 36.4729 86.031 35.9999C86.025 35.7249 89.219 33.4749 93.13 30.9999C97.04 28.5249 102.533 25.0369 105.336 23.2499C108.139 21.4619 110.785 19.9999 111.216 19.9999C111.647 19.9999 112 19.3979 112 18.6619C112 17.1609 87.619 0.884946 84.5 0.303946C82.777 -0.0180538 74.922 4.45195 64 11.9689C62.625 12.9159 60.106 14.4109 58.402 15.2919L55.303 16.8949L42.402 8.46595C35.306 3.83095 28.825 0.0319465 28 0.0239465C27.175 0.0159465 22.9 2.32895 18.5 5.16195ZM69.363 27.6459C76.038 31.8509 81.66 35.4229 81.856 35.5839C82.051 35.7459 78.901 37.9839 74.856 40.5579C70.81 43.1329 64.852 46.9539 61.615 49.0499C55.795 52.8189 55.702 52.8409 53.115 51.0869C50.304 49.1799 46.115 46.5179 36.271 40.3819C32.845 38.2469 30.032 36.1779 30.021 35.7849C30.009 35.3919 31.012 34.5399 32.25 33.8929C34.366 32.7849 37.612 30.7569 49.421 23.1639C52.128 21.4239 54.992 19.9999 55.784 19.9999C56.577 19.9999 62.688 23.4399 69.363 27.6459ZM51.259 61.8289C26.649 77.3309 26.795 77.2249 28.157 78.4899C30.227 80.4139 55.011 95.9999 56 95.9999C56.986 95.9999 81.769 80.4169 83.835 78.4979C84.921 77.4899 82.448 75.5529 70.598 68.1289C62.584 63.1079 55.908 59.0349 55.763 59.0789C55.618 59.1219 53.592 60.3589 51.259 61.8289Z" fill="white"/>
<path fill-rule="evenodd" clip-rule="evenodd" d="M18.5 5.16195C14.1 7.99595 8.51001 11.5929 6.07901 13.1569C3.64701 14.7209 1.28401 15.9999 0.82901 15.9999C0.37301 15.9999 0.01801 16.7879 0.04101 17.7499C0.06501 18.8079 2.73301 21.1379 6.79101 23.6449C10.481 25.9249 16.379 29.5979 19.897 31.8069L26.294 35.8239L18.897 40.5389C14.829 43.1319 8.92201 46.8839 5.77101 48.8759C2.62001 50.8689 0.03201 53.0099 0.02101 53.6329C-0.00099003 54.8209 26.145 71.9999 27.975 71.9999C28.555 71.9999 34.107 68.6899 40.312 64.6439C46.518 60.5969 52.618 56.7399 53.867 56.0709C55.921 54.9719 57.422 55.6769 69.529 63.4279C76.894 68.1419 83.391 71.9999 83.967 71.9999C84.796 71.9999 100.125 62.4199 110.704 55.2899C112.385 54.1569 112.329 53.9329 109.823 51.7899C108.35 50.5299 105.2 48.3319 102.823 46.9039C93.273 41.1689 86.041 36.4729 86.031 35.9999C86.025 35.7249 89.219 33.4749 93.13 30.9999C97.04 28.5249 102.533 25.0369 105.336 23.2499C108.139 21.4619 110.785 19.9999 111.216 19.9999C111.647 19.9999 112 19.3979 112 18.6619C112 17.1609 87.619 0.884946 84.5 0.303946C82.777 -0.0180538 74.922 4.45195 64 11.9689C62.625 12.9159 60.106 14.4109 58.402 15.2919L55.303 16.8949L42.402 8.46595C35.306 3.83095 28.825 0.0319465 28 0.0239465C27.175 0.0159465 22.9 2.32895 18.5 5.16195ZM69.363 27.6459C76.038 31.8509 81.66 35.4229 81.856 35.5839C82.051 35.7459 78.901 37.9839 74.856 40.5579C70.81 43.1329 64.852 46.9539 61.615 49.0499C55.795 52.8189 55.702 52.8409 53.115 51.0869C50.304 49.1799 46.115 46.5179 36.271 40.3819C32.845 38.2469 30.032 36.1779 30.021 35.7849C30.009 35.3919 31.012 34.5399 32.25 33.8929C34.366 32.7849 37.612 30.7569 49.421 23.1639C52.128 21.4239 54.992 19.9999 55.784 19.9999C56.577 19.9999 62.688 23.4399 69.363 27.6459ZM51.259 61.8289C26.649 77.3309 26.795 77.2249 28.157 78.4899C30.227 80.4139 55.011 95.9999 56 95.9999C56.986 95.9999 81.769 80.4169 83.835 78.4979C84.921 77.4899 82.448 75.5529 70.598 68.1289C62.584 63.1079 55.908 59.0349 55.763 59.0789C55.618 59.1219 53.592 60.3589 51.259 61.8289Z" fill="white"/>
<path fill-rule="evenodd" clip-rule="evenodd" d="M18.5 5.16195C14.1 7.99595 8.51001 11.5929 6.07901 13.1569C3.64701 14.7209 1.28401 15.9999 0.82901 15.9999C0.37301 15.9999 0.01801 16.7879 0.04101 17.7499C0.06501 18.8079 2.73301 21.1379 6.79101 23.6449C10.481 25.9249 16.379 29.5979 19.897 31.8069L26.294 35.8239L18.897 40.5389C14.829 43.1319 8.92201 46.8839 5.77101 48.8759C2.62001 50.8689 0.03201 53.0099 0.02101 53.6329C-0.00099003 54.8209 26.145 71.9999 27.975 71.9999C28.555 71.9999 34.107 68.6899 40.312 64.6439C46.518 60.5969 52.618 56.7399 53.867 56.0709C55.921 54.9719 57.422 55.6769 69.529 63.4279C76.894 68.1419 83.391 71.9999 83.967 71.9999C84.796 71.9999 100.125 62.4199 110.704 55.2899C112.385 54.1569 112.329 53.9329 109.823 51.7899C108.35 50.5299 105.2 48.3319 102.823 46.9039C93.273 41.1689 86.041 36.4729 86.031 35.9999C86.025 35.7249 89.219 33.4749 93.13 30.9999C97.04 28.5249 102.533 25.0369 105.336 23.2499C108.139 21.4619 110.785 19.9999 111.216 19.9999C111.647 19.9999 112 19.3979 112 18.6619C112 17.1609 87.619 0.884946 84.5 0.303946C82.777 -0.0180538 74.922 4.45195 64 11.9689C62.625 12.9159 60.106 14.4109 58.402 15.2919L55.303 16.8949L42.402 8.46595C35.306 3.83095 28.825 0.0319465 28 0.0239465C27.175 0.0159465 22.9 2.32895 18.5 5.16195ZM69.363 27.6459C76.038 31.8509 81.66 35.4229 81.856 35.5839C82.051 35.7459 78.901 37.9839 74.856 40.5579C70.81 43.1329 64.852 46.9539 61.615 49.0499C55.795 52.8189 55.702 52.8409 53.115 51.0869C50.304 49.1799 46.115 46.5179 36.271 40.3819C32.845 38.2469 30.032 36.1779 30.021 35.7849C30.009 35.3919 31.012 34.5399 32.25 33.8929C34.366 32.7849 37.612 30.7569 49.421 23.1639C52.128 21.4239 54.992 19.9999 55.784 19.9999C56.577 19.9999 62.688 23.4399 69.363 27.6459ZM51.259 61.8289C26.649 77.3309 26.795 77.2249 28.157 78.4899C30.227 80.4139 55.011 95.9999 56 95.9999C56.986 95.9999 81.769 80.4169 83.835 78.4979C84.921 77.4899 82.448 75.5529 70.598 68.1289C62.584 63.1079 55.908 59.0349 55.763 59.0789C55.618 59.1219 53.592 60.3589 51.259 61.8289Z" fill="white"/>
<path fill-rule="evenodd" clip-rule="evenodd" d="M18.5 5.16195C14.1 7.99595 8.51001 11.5929 6.07901 13.1569C3.64701 14.7209 1.28401 15.9999 0.82901 15.9999C0.37301 15.9999 0.01801 16.7879 0.04101 17.7499C0.06501 18.8079 2.73301 21.1379 6.79101 23.6449C10.481 25.9249 16.379 29.5979 19.897 31.8069L26.294 35.8239L18.897 40.5389C14.829 43.1319 8.92201 46.8839 5.77101 48.8759C2.62001 50.8689 0.03201 53.0099 0.02101 53.6329C-0.00099003 54.8209 26.145 71.9999 27.975 71.9999C28.555 71.9999 34.107 68.6899 40.312 64.6439C46.518 60.5969 52.618 56.7399 53.867 56.0709C55.921 54.9719 57.422 55.6769 69.529 63.4279C76.894 68.1419 83.391 71.9999 83.967 71.9999C84.796 71.9999 100.125 62.4199 110.704 55.2899C112.385 54.1569 112.329 53.9329 109.823 51.7899C108.35 50.5299 105.2 48.3319 102.823 46.9039C93.273 41.1689 86.041 36.4729 86.031 35.9999C86.025 35.7249 89.219 33.4749 93.13 30.9999C97.04 28.5249 102.533 25.0369 105.336 23.2499C108.139 21.4619 110.785 19.9999 111.216 19.9999C111.647 19.9999 112 19.3979 112 18.6619C112 17.1609 87.619 0.884946 84.5 0.303946C82.777 -0.0180538 74.922 4.45195 64 11.9689C62.625 12.9159 60.106 14.4109 58.402 15.2919L55.303 16.8949L42.402 8.46595C35.306 3.83095 28.825 0.0319465 28 0.0239465C27.175 0.0159465 22.9 2.32895 18.5 5.16195ZM69.363 27.6459C76.038 31.8509 81.66 35.4229 81.856 35.5839C82.051 35.7459 78.901 37.9839 74.856 40.5579C70.81 43.1329 64.852 46.9539 61.615 49.0499C55.795 52.8189 55.702 52.8409 53.115 51.0869C50.304 49.1799 46.115 46.5179 36.271 40.3819C32.845 38.2469 30.032 36.1779 30.021 35.7849C30.009 35.3919 31.012 34.5399 32.25 33.8929C34.366 32.7849 37.612 30.7569 49.421 23.1639C52.128 21.4239 54.992 19.9999 55.784 19.9999C56.577 19.9999 62.688 23.4399 69.363 27.6459ZM51.259 61.8289C26.649 77.3309 26.795 77.2249 28.157 78.4899C30.227 80.4139 55.011 95.9999 56 95.9999C56.986 95.9999 81.769 80.4169 83.835 78.4979C84.921 77.4899 82.448 75.5529 70.598 68.1289C62.584 63.1079 55.908 59.0349 55.763 59.0789C55.618 59.1219 53.592 60.3589 51.259 61.8289Z" fill="white"/>
<path fill-rule="evenodd" clip-rule="evenodd" d="M18.5 5.16195C14.1 7.99595 8.51001 11.5929 6.07901 13.1569C3.64701 14.7209 1.28401 15.9999 0.82901 15.9999C0.37301 15.9999 0.01801 16.7879 0.04101 17.7499C0.06501 18.8079 2.73301 21.1379 6.79101 23.6449C10.481 25.9249 16.379 29.5979 19.897 31.8069L26.294 35.8239L18.897 40.5389C14.829 43.1319 8.92201 46.8839 5.77101 48.8759C2.62001 50.8689 0.03201 53.0099 0.02101 53.6329C-0.00099003 54.8209 26.145 71.9999 27.975 71.9999C28.555 71.9999 34.107 68.6899 40.312 64.6439C46.518 60.5969 52.618 56.7399 53.867 56.0709C55.921 54.9719 57.422 55.6769 69.529 63.4279C76.894 68.1419 83.391 71.9999 83.967 71.9999C84.796 71.9999 100.125 62.4199 110.704 55.2899C112.385 54.1569 112.329 53.9329 109.823 51.7899C108.35 50.5299 105.2 48.3319 102.823 46.9039C93.273 41.1689 86.041 36.4729 86.031 35.9999C86.025 35.7249 89.219 33.4749 93.13 30.9999C97.04 28.5249 102.533 25.0369 105.336 23.2499C108.139 21.4619 110.785 19.9999 111.216 19.9999C111.647 19.9999 112 19.3979 112 18.6619C112 17.1609 87.619 0.884946 84.5 0.303946C82.777 -0.0180538 74.922 4.45195 64 11.9689C62.625 12.9159 60.106 14.4109 58.402 15.2919L55.303 16.8949L42.402 8.46595C35.306 3.83095 28.825 0.0319465 28 0.0239465C27.175 0.0159465 22.9 2.32895 18.5 5.16195ZM69.363 27.6459C76.038 31.8509 81.66 35.4229 81.856 35.5839C82.051 35.7459 78.901 37.9839 74.856 40.5579C70.81 43.1329 64.852 46.9539 61.615 49.0499C55.795 52.8189 55.702 52.8409 53.115 51.0869C50.304 49.1799 46.115 46.5179 36.271 40.3819C32.845 38.2469 30.032 36.1779 30.021 35.7849C30.009 35.3919 31.012 34.5399 32.25 33.8929C34.366 32.7849 37.612 30.7569 49.421 23.1639C52.128 21.4239 54.992 19.9999 55.784 19.9999C56.577 19.9999 62.688 23.4399 69.363 27.6459ZM51.259 61.8289C26.649 77.3309 26.795 77.2249 28.157 78.4899C30.227 80.4139 55.011 95.9999 56 95.9999C56.986 95.9999 81.769 80.4169 83.835 78.4979C84.921 77.4899 82.448 75.5529 70.598 68.1289C62.584 63.1079 55.908 59.0349 55.763 59.0789C55.618 59.1219 53.592 60.3589 51.259 61.8289Z" fill="white"/>
</svg>
